<svg xmlns="http://www.w3.org/2000/svg" xmlns:xlink="http://www.w3.org/1999/xlink" viewBox="0 0 125.06 48.87" width="125.06" height="48.87"><defs><style>.cls-1{fill:#fff;}.cls-2{fill:#425868;}.cls-3{fill:#d7dee5;}.cls-4{fill:#00afef;}.cls-5{mask:url(#mask);}</style><mask id="mask" x="115.06" y="0.01" width="2.49" height="2.49" maskUnits="userSpaceOnUse"><g id="mask-2"><polygon id="path-1" class="cls-1" points="115.06 0.01 117.55 0.01 117.55 2.5 115.06 2.5 115.06 0.01"/></g></mask></defs><title>Asset 2</title><g id="Layer_2" data-name="Layer 2"><g id="Layer_1-2" data-name="Layer 1"><g id="App-Index"><g id="Logo_Maxmind_Dark" data-name="Logo/Maxmind/Dark"><g id="Page-1"><path id="Fill-1" class="cls-2" d="M0,37.47a.63.63,0,0,0,.38,0c.67,0,1.34,0,2,0a.54.54,0,0,1,.54.3c.84,1.37,1.7,2.72,2.56,4.08a1.11,1.11,0,0,0,.23.33c.15-.06.19-.21.26-.32.84-1.35,1.68-2.71,2.51-4.07a.56.56,0,0,1,.57-.31c.68,0,1.37,0,2.05,0,.21,0,.27.07.27.27,0,1.12,0,2.24,0,3.36v7.2c0,.09,0,.18,0,.28s0,.2-.17.2H9.07c-.15,0-.21-.08-.21-.22s0-.18,0-.28q0-3.16,0-6.33a.8.8,0,0,0-.06-.44L5.67,46.3,2.56,41.63c-.15.15-.1.3-.1.43q0,3.13,0,6.25c0,.51,0,.51-.53.52H.39a.68.68,0,0,0-.39,0Z"/><path id="Fill-3" class="cls-3" d="M122.62,14.91c0-.08,0-.16,0-.24a1.21,1.21,0,0,1,.78-1.24,1.29,1.29,0,0,1,1.44.45c.06.08.06.2.17.25v1a1.29,1.29,0,0,1-1.34.72l-.31-.1a2,2,0,0,1-.6-.57l-.13-.3"/><path id="Fill-5" class="cls-4" d="M60.62,42.25a1,1,0,0,0,.29-.37c.85-1.35,1.7-2.7,2.54-4.05a.54.54,0,0,1,.54-.29c.68,0,1.37,0,2.05,0,.29,0,.29,0,.3.28,0,.08,0,.16,0,.24V48.27c0,.09,0,.19,0,.28s-.06.26-.25.26h-2c-.19,0-.26-.07-.25-.26s0-.18,0-.28V41.6c-.19,0-.23.2-.3.3l-2.66,4a1.17,1.17,0,0,1-.27.34l-3.12-4.68a1,1,0,0,0-.05.46q0,3.15,0,6.29c0,.51,0,.47-.46.47H55.31c-.33,0-.34,0-.34-.35,0-.7,0-1.4,0-2.1V38.08c0-.07,0-.13,0-.2,0-.34,0-.34.35-.34.66,0,1.32,0,2,0a.57.57,0,0,1,.57.31c.84,1.36,1.69,2.71,2.53,4.06l.23.35"/><path id="Fill-7" class="cls-4" d="M88,41.77v.38q0,3.07,0,6.13a2.23,2.23,0,0,0,0,.28c0,.22-.08.27-.28.27H85.84c-.27,0-.27,0-.27-.3s0-.37,0-.55q0-5,0-10c0-.41-.09-.44.42-.44s1.05,0,1.58,0a.57.57,0,0,1,.52.27L92.77,44a1.45,1.45,0,0,0,.32.37.56.56,0,0,0,.06-.38q0-3,0-6c0-.09,0-.18,0-.28s.06-.21.21-.21h2.05c.13,0,.19.05.19.19s0,.16,0,.24q0,5.22,0,10.45c0,.45.06.43-.42.43s-.89,0-1.34,0a.64.64,0,0,1-.59-.29q-2.39-3.18-4.79-6.34l-.36-.46-.1,0"/><path id="Fill-9" class="cls-4" d="M106.32,43.17c0,1,0,2.06,0,3.09,0,.32,0,.33.33.33h1.85a3.17,3.17,0,0,0,1.61-.49,3.44,3.44,0,0,0-1.73-6.33h-1.74c-.32,0-.33,0-.33.33C106.32,41.12,106.32,42.14,106.32,43.17Zm-2.48,0q0-2.57,0-5.14c0-.09,0-.18,0-.28s.07-.21.21-.21h.2c1.39,0,2.79,0,4.18,0a6,6,0,0,1,3.42,1,5.33,5.33,0,0,1,2.35,4.06,5.58,5.58,0,0,1-.42,2.86,5.4,5.4,0,0,1-3.15,2.93,6.75,6.75,0,0,1-2.43.42h-4c-.33,0-.33,0-.33-.33,0-.61,0-1.21,0-1.82Z"/><path id="Fill-11" class="cls-2" d="M23.11,44.06h3L24.64,40.5h-.08l-1.45,3.56m-4.46,4.71a1.35,1.35,0,0,1,.16-.44Q21,43.07,23.25,37.81a.54.54,0,0,1,.6-.4,13.94,13.94,0,0,0,1.54,0,.44.44,0,0,1,.49.33q1.65,3.94,3.32,7.87l1.25,2.95c0,.07.09.13.05.24a1.68,1.68,0,0,1-.53,0H28.31a.32.32,0,0,1-.35-.24c-.26-.66-.55-1.31-.8-2a.44.44,0,0,0-.48-.34c-1.38,0-2.76,0-4.14,0a.42.42,0,0,0-.46.31c-.26.68-.55,1.34-.82,2-.06.15-.13.24-.31.23H18.77a.41.41,0,0,1-.11,0"/><path id="Fill-13" class="cls-2" d="M42.17,41.14a.91.91,0,0,0,.29-.34c.65-1,1.31-2,1.94-3a.58.58,0,0,1,.57-.31c.7,0,1.39,0,2.09,0a.6.6,0,0,1,.33,0,1,1,0,0,1-.21.35l-3.31,4.78c-.27.39-.24.33,0,.68l3.43,5a.79.79,0,0,1,.2.37c-.11.09-.23.05-.34.05-.71,0-1.42,0-2.13,0a.56.56,0,0,1-.54-.29c-.68-1.06-1.38-2.12-2.08-3.17a.86.86,0,0,0-.27-.33c-.14.06-.18.19-.25.3-.7,1.07-1.41,2.13-2.1,3.21a.55.55,0,0,1-.54.29c-.72,0-1.45,0-2.17,0a.56.56,0,0,1-.29,0,1.2,1.2,0,0,1,.22-.37l3.45-5c.26-.38.22-.32,0-.65L37.14,37.9c-.07-.1-.18-.19-.18-.33s.18,0,.27,0c.75,0,1.5,0,2.25,0a.52.52,0,0,1,.51.28c.64,1,1.29,2,1.94,3l.25.37"/><path id="Fill-15" class="cls-3" d="M94.86,25.36,93,25.08l-1.9-.28-1.78-.27-1.94-.29L85.56,24l-1.94-.29-1.82-.28L80,23.14l-1.82-.27-1.74-.27c-.25,0-.3,0-.31.26,0,.05,0,.11,0,.16q0,4.41,0,8.82a.76.76,0,0,1-.32,0q0-4.47,0-8.94c0-.44,0-.36-.39-.44-.72-.15-1.44-.23-2.17-.34l-2.4-.33-2.48-.38-1.93-.3-2.21-.33-1.94-.29-1.78-.27-1.94-.29-1.78-.27-1.86-.27-1.82-.29-2.44-.37a.58.58,0,0,0-.4,0,.14.14,0,0,0,.09.14l2.45,1.35,2.87,1.56L59.54,24l1.87,1,3.51,2,2.8,1.53,3.65,2,2.9,1.59a.65.65,0,0,0,.37.09,1.6,1.6,0,0,1,0,.48A11.38,11.38,0,0,1,73.35,32c-.65-.34-1.28-.71-1.92-1.07l-3.86-2.13-2-1.07L62,25.7l-2-1.09-3.75-2.07-1.79-1-3.82-2.11-.67-.34a2.29,2.29,0,0,0,.24-.79,2.52,2.52,0,0,0,.81.15l3.09.47c1,.16,2,.27,3,.42.76.11,1.52.26,2.28.37l2.4.34,1.82.29,1.86.27,1.78.27,1.94.29,1.78.27,1.94.29,1.82.28c.26,0,.52.09.78.11s.29,0,.31-.27c0-.09,0-.18,0-.28q0-4.71,0-9.41c0-.17,0-.34,0-.51h.29c0,.17,0,.34,0,.51q0,4.79,0,9.57c0,.51,0,.5.48.55s.9.13,1.35.2l2.24.34,1.94.29,1.78.27,1.94.29,1.78.26,1.9.28,1.82.27c.63.09,1.26.2,1.9.28a8.74,8.74,0,0,0,1.71.2l-.06.4"/><path id="Fill-17" class="cls-4" d="M74.65,43.13V38c0-.09,0-.18,0-.28s0-.19.18-.19H77c.13,0,.19.06.19.19s0,.18,0,.28q0,5.18,0,10.37s0,0,0,0c0,.43.06.43-.43.43H75c-.3,0-.3,0-.3-.31q0-2.69,0-5.38"/><path id="Fill-19" class="cls-3" d="M122.62,14.91l.13.3c-1,.34-2,.75-2.94,1.12l-1.39.54c-.28.11-.31.17-.27.4.08.57.17,1.14.22,1.71.06.76.16,1.51.24,2.27s.15,1.72.26,2.58c0,.3,0,.6.08.9.07.58.15,1.17.22,1.75s.1,1.23.17,1.84.18,1.46.23,2.19a7.79,7.79,0,0,1,.08.82.28.28,0,0,0,.13.23l.89-3.91,1.11-4.91c.21-.91.42-1.81.62-2.72l1-4.26.31.1c-.19.84-.37,1.69-.56,2.53L122,23.31l-1.34,5.91c-.19.84-.39,1.69-.59,2.53a2.59,2.59,0,0,0-.75,0,11.11,11.11,0,0,0-.14-1.45c0-.3-.05-.6-.09-.9-.11-1-.19-1.93-.32-2.89-.08-.61-.09-1.23-.18-1.84s-.14-1.22-.2-1.83-.13-1.2-.19-1.8-.14-1.25-.21-1.87c0-.34-.08-.68-.09-1s-.1-.62-.11-1a6.11,6.11,0,0,0-1.16.42l-4.54,1.78-4.91,1.92-5.06,2-4.21,1.66a1.54,1.54,0,0,1-.56.16l-.14-.32a1.23,1.23,0,0,0,.23,0l2.05-.79,5.67-2.24,6.49-2.51,5.74-2.26c.33-.13.37-.22.32-.57-.08-.61-.15-1.22-.22-1.83s-.09-1.23-.18-1.84c0-.29,0-.58-.08-.86s-.1-.73-.13-1.09c-.06-.6-.11-1.2-.17-1.8s-.18-1.22-.21-1.83-.13-1.22-.18-1.84c-.07-.91-.2-1.82-.31-2.73l.38,0c.05.8.16,1.59.24,2.39.06.61.12,1.23.19,1.84s.1,1.23.21,1.83c.06.35.06.7.1,1.06s.07.73.13,1.09,0,.63.09.94c.12.86.16,1.72.26,2.58s.18,1.46.23,2.19c0,.19.1.22.26.15l1.32-.51L122.35,15a.71.71,0,0,1,.27-.06"/><path id="Fill-21" class="cls-3" d="M96.9,24.34a.92.92,0,0,1,.27-.47c.81-1,1.62-1.92,2.42-2.9s1.45-1.72,2.17-2.59l2.23-2.7,1.8-2.14,2.23-2.7,1.8-2.14L112,6c.6-.72,1.21-1.42,1.8-2.14.44-.54.87-1.08,1.34-1.6.06-.07.12-.14.22-.14a.49.49,0,0,1,.21.16L115,3.1l-1.37,1.63-1.48,1.79-1.4,1.7-1.36,1.63-1,1.23-1.75,2.13-1.77,2.11-1.86,2.24-1.77,2.11-1.83,2.21c-.59.71-1.19,1.4-1.77,2.11-.15.19-.37.34-.42.61l-.23-.25"/><path id="Fill-23" class="cls-3" d="M77,11a.38.38,0,0,1,.22.09l6.35,4.71,6.24,4.65,5.12,3.79a.61.61,0,0,0,.32.14l-.29.42c-.06-.21-.25-.3-.4-.41l-2.5-1.84-5.11-3.8L82,15.16c-1.29-1-2.59-1.91-3.88-2.89a10,10,0,0,1-1.32-1A.32.32,0,0,1,77,11"/><path id="Fill-25" class="cls-3" d="M74.63,32.65a1.61,1.61,0,0,0,0-.48c0-.3,0-.3.3-.31l.81,0a.76.76,0,0,0,.32,0l.86,0c.15,0,.21.05.21.21q0,1,0,2.09c0,.14,0,.22-.2.22l-2.12,0c-.17,0-.18-.09-.18-.23,0-.51,0-1,0-1.54"/><path id="Fill-27" class="cls-3" d="M50.18,18.31a2.28,2.28,0,0,1-.24.79c-.09.08-.17.16-.26.23A1.24,1.24,0,0,1,47.89,19a1.23,1.23,0,0,1,.37-1.76A1.28,1.28,0,0,1,50.1,18c0,.11.05.23.08.35"/><g id="Group-31"><g class="cls-5"><path id="Fill-29" class="cls-3" d="M115.61,2.31a.49.49,0,0,0-.21-.16,4.41,4.41,0,0,1-.24-.41,1.22,1.22,0,0,1,.5-1.57,1.27,1.27,0,0,1,1.67.41,1.23,1.23,0,0,1-.21,1.61,2.1,2.1,0,0,1-.52.27l-.38,0a2.5,2.5,0,0,1-.62-.19"/></g></g><path id="Fill-32" class="cls-3" d="M95,24.83l.29-.42a1.37,1.37,0,0,1,1.66-.07l.23.25.09.14.14.32a2.58,2.58,0,0,1,0,.47,1.17,1.17,0,0,1-.9,1,1.2,1.2,0,0,1-1.31-.41,1.13,1.13,0,0,1-.3-.74l.06-.4,0-.13"/><path id="Fill-34" class="cls-3" d="M77,11a.32.32,0,0,0-.15.21,2.05,2.05,0,0,1-.79.41h-.29a1.27,1.27,0,0,1-1-.95A1.22,1.22,0,0,1,76.6,9.37a1.22,1.22,0,0,1,.51,1.27c0,.13-.07.25-.11.38"/><path id="Fill-36" class="cls-3" d="M119.32,31.7a2.59,2.59,0,0,1,.75,0,2.53,2.53,0,0,1,.42.29,1.23,1.23,0,1,1-1.8,1.65,1.23,1.23,0,0,1,.25-1.77c.12-.08.25-.14.37-.21"/></g></g></g><circle class="cls-4" cx="48.92" cy="18.32" r="1.26"/><circle class="cls-4" cx="75.91" cy="10.4" r="1.26"/><circle class="cls-4" cx="96.11" cy="25.33" r="1.26"/><circle class="cls-4" cx="116.31" cy="1.26" r="1.26"/><circle class="cls-4" cx="119.65" cy="32.92" r="1.26"/><circle class="cls-4" cx="123.8" cy="14.61" r="1.26"/><rect class="cls-4" x="74.63" y="31.84" width="2.54" height="2.54"/></g></g></svg>
